<?xml version="1.0" encoding="utf-8"?>
<!DOCTYPE svg PUBLIC "-//W3C//DTD SVG 1.1//EN" "http://www.w3.org/Graphics/SVG/1.1/DTD/svg11.dtd">
<svg version="1.1" id="VARG" xmlns="http://www.w3.org/2000/svg" xmlns:xlink="http://www.w3.org/1999/xlink" x="0px" y="0px"
 width="219px" height="75px" viewBox="0 0 219 75" enable-background="new 0 0 219 75" xml:space="preserve">
<path d="M211.57,63.12c-2.406,0-4.343,1.937-4.343,4.344c0,2.459,1.937,4.395,4.343,4.395c2.407,0,4.344-1.935,4.344-4.395
C215.914,65.057,213.978,63.12,211.57,63.12L211.57,63.12z M211.57,71.23c-2.041,0-3.716-1.674-3.716-3.767
c0-2.041,1.675-3.715,3.716-3.715s3.715,1.674,3.715,3.715C215.285,69.557,213.611,71.23,211.57,71.23L211.57,71.23z
 M212.774,67.568L212.774,67.568c0.523-0.262,0.785-0.681,0.785-1.256c0-0.733-0.575-1.361-1.464-1.361h-2.565v4.918h1.047v-1.936
h1.047c0.523,0,0.733,0.261,0.837,0.785c0.052,0.366,0,0.837,0.157,1.15h1.099c-0.209-0.261-0.209-0.837-0.209-1.15
C213.454,68.196,213.297,67.673,212.774,67.568L212.774,67.568z M211.728,67.202h-1.151v-1.413h1.151
c0.471,0,0.732,0.209,0.732,0.681C212.46,66.993,212.198,67.202,211.728,67.202L211.728,67.202z M202.623,40.149l0.419,0.89
c0,0,5.86-2.041,5.86-6.279c0-1.151-1.152-2.617-2.617-2.617c-1.569,0-2.93,1.256-3.191,2.879c-0.262,1.518,0.836,2.773,2.197,2.878
C205.082,38.317,204.454,39.208,202.623,40.149L202.623,40.149z M166.309,37.952c1.622,0,3.139-1.308,3.4-2.93
c0.262-1.57-0.889-2.879-2.512-2.879c-1.622,0-3.14,1.309-3.348,2.879C163.587,36.644,164.686,37.952,166.309,37.952L166.309,37.952
z M54.538,35.544c5.757-2.146,12.82-7.431,12.82-15.908c0-5.337-2.146-9-5.181-11.407c1.727-1.255,3.506-2.198,5.39-2.93
c0.576-0.21,0.628-0.576,0.576-0.733c-0.052-0.209-0.21-0.471-0.89-0.314c-2.093,0.523-4.238,1.622-6.384,3.087
c-3.454-2.197-7.744-3.034-11.564-3.034c-6.489,0-16.745,2.616-22.867,9.366c-9.68,10.675-8.686,23.39,0.471,23.233
c6.384-0.053,15.593-10.937,17.477-20.565c0.157-0.785-0.052-1.151-0.314-1.151c-0.523-0.104-0.628,0.366-0.838,1.151
c-0.942,3.663-3.819,10.046-8.162,14.39c-3.035,3.035-8.425,6.907-11.931,3.297c-3.768-3.925,0.104-14.861,7.483-20.879
c4.552-3.715,11.773-7.116,19.884-7.116c3.872,0,6.75,0.89,8.686,2.459v0.052c-2.145,1.622-4.291,3.558-6.436,5.756
c-5.076,5.128-11.774,15.279-21.244,33.541C24.607,61.184,18.329,68.72,12.363,68.72c-5.128,0-7.796-3.401-7.796-7.85
c0-10.518,9-19.047,15.279-19.047c3.924,0,4.972,3.925,4.605,6.593c-0.419,2.46-3.244,9.262-10.674,11.25
c-0.628,0.157-0.89,0.419-0.785,0.68c0.157,0.419,0.681,0.523,1.203,0.472c3.035-0.314,6.855-2.983,8.687-5.442
c1.831-2.459,3.401-5.128,3.401-8.843c0-3.768-2.616-6.436-6.488-6.436c-4.029,0-8.477,2.93-11.042,5.493
c-3.349,3.35-6.174,8.163-6.174,14.704c0,6.75,3.82,10.099,9.995,10.099c6.541,0,19.727-7.64,26.53-23.337
c6.541-15.123,8.581-19.78,11.512-24.803c3.454-5.809,6.541-9.786,9.732-12.558c1.36,1.674,1.989,3.872,1.989,6.488
c0,8.53-5.547,16.692-9.471,18.21c-1.675-0.942-3.192-1.309-4.238-1.309c-1.099,0-2.564,0.419-2.564,1.622
c0,1.204,1.256,1.937,3.296,1.937c0.89,0,2.041-0.157,3.244-0.471c1.518,1.308,2.407,3.4,2.407,6.069
c0,7.64-6.226,18.785-9.366,21.715c-1.046,0.994-3.506,3.506-6.123,2.982c-5.808-1.151-2.25-10.465,0.523-14.076
c2.094-2.721,4.815-5.075,8.687-6.069c0.471-0.158,0.576-0.419,0.471-0.785c-0.104-0.314-1.36-0.209-2.093,0
c-9.105,2.564-12.768,13.134-12.768,16.797s2.041,6.122,5.964,6.122c5.966,0,10.832-4.291,12.454-5.86
c3.401-3.402,6.959-9,6.959-15.384C59.719,41.562,57.259,37.742,54.538,35.544L54.538,35.544z M50.823,35.125
c0,0-0.836,0.158-1.465,0.158c-0.942,0-1.361-0.21-1.361-0.419s0.21-0.523,1.1-0.366c0.628,0.157,1.256,0.313,1.779,0.575
L50.823,35.125L50.823,35.125z M209.32,45.539c-0.104-0.471,0.524-1.57,0.628-1.779c2.826-4.291,4.291-6.593,4.291-8.006
c0-1.047-0.575-1.256-1.151-1.256c-1.099,0-2.303,1.675-2.826,2.616c-0.471,0.89-1.623,3.349-2.041,6.646
c-1.832,3.924-6.907,10.152-9.366,13.553c-1.047-0.523-2.564,0.156-3.715,1.36c-0.942,0.994-1.623,2.773-1.571,5.076
c-2.773,2.878-4.604,3.924-6.122,3.924c-0.418,0-1.256-0.471-1.256-1.727c0-1.989,1.151-5.181,4.081-10.518
c0.523,0.157,1.36,0.261,2.355,0.261c3.558,0,9.785-3.714,9.785-8.476c0-2.408-1.413-3.873-3.715-3.873
c-2.878,0-9.576,3.244-13.657,11.564c-4.396,8.948-8.006,12.664-9.157,12.664c-0.785,0-1.099-0.942-0.89-2.041
c0.314-1.57,3.663-7.692,7.169-13.395c1.57-2.512,2.041-4.134,1.988-5.337c-0.104-1.466-0.994-3.297-3.296-3.35
c-3.192-0.104-5.652,2.407-7.325,4.763c0.052-0.524,0.418-4.815-3.036-4.815c-2.407,0-4.081,2.565-5.128,4.5
c-1.203,2.25-6.646,12.715-8.163,15.227c-1.204,2.146-2.459,4.553-3.663,4.553c-0.68,0-1.046-0.941-0.208-2.564l11.511-21.14h-5.232
l-7.796,14.39c-4.083,7.379-7.065,9.21-8.269,9.21c-0.68,0-1.203-0.837-0.314-2.512l13.029-23.914h4.238l0.995-1.831h-4.238
l3.505-6.384h-5.232l-3.507,6.384h-5.546l-0.995,1.831h5.546l-9.994,18.314c-2.721,5.024-5.809,8.111-7.012,8.111
c-0.785,0-1.046-0.942-0.837-2.041c0.313-1.57,3.715-7.692,7.273-13.395c1.517-2.512,1.988-4.134,1.936-5.337
c-0.052-1.466-0.942-3.297-3.296-3.35c-3.14-0.104-5.651,2.407-7.326,4.763c0.052-0.524,0.471-4.815-3.035-4.815
c-2.406,0-4.081,2.565-5.128,4.5c-1.203,2.25-6.646,12.715-8.163,15.227c-1.203,2.146-2.459,4.553-3.662,4.553
c-0.681,0-0.994-0.89-0.157-2.564l11.721-21.087h-5.233l-0.837,1.831c0,0-0.261-2.146-2.983-2.146
c-2.616,0-10.936,4.134-15.018,13.605c-3.087,7.012-6.854,10.308-7.953,10.308c-0.628,0-0.994-0.889-0.157-2.563l23.651-43.483
h-5.232L88.969,59.51c-3.401,5.913-6.175,8.11-7.378,8.11c-0.68,0-0.994-0.889-0.157-2.563l23.651-43.536h-5.232L79.236,59.51
c-3.401,5.913-5.965,8.11-7.169,8.11c-0.68,0-0.993-0.889-0.156-2.563l11.721-21.088h-5.233l-0.837,1.779
c0,0-0.262-2.146-2.982-2.146c-2.722,0-11.826,4.238-15.332,14.442c-2.826,8.163,0.784,10.884,2.93,10.884
c2.408,0,4.448-2.146,6.175-4.5c-0.053,0.471-0.366,4.5,3.14,4.5c2.041,0,3.611-1.309,6.122-4.761
c-0.052,0.523-0.052,4.761,3.454,4.761c2.041,0,3.82-1.309,6.331-4.761c-0.052,1.046,0.157,4.814,3.349,4.814
c1.623,0,4.03-1.151,7.222-6.646c-0.523,4.919,2.197,6.698,3.924,6.698c2.407,0,4.448-2.146,6.175-4.552
c-0.053,0.523-0.367,4.552,3.139,4.552c2.407,0,3.715-2.198,5.128-4.657c1.151-1.988,7.012-13.186,8.163-15.436
c1.099-2.094,2.355-3.978,3.558-3.978c0.628,0,1.413,0.524-0.627,4.186l-10.57,19.466h5.233l8.686-15.907
c3.506-6.332,5.651-7.902,7.587-7.902c0.627,0,1.308,0.942,0.262,2.459c-4.71,6.698-8.321,13.866-8.687,16.797
c-0.367,2.877,1.413,4.866,3.61,4.866c2.408,0,4.448-2.564,6.071-4.918c-0.053,0.523-0.314,4.918,3.191,4.918
c2.04,0,3.977-1.047,7.012-4.918c-0.105,0.732-0.367,5.023,3.139,5.023c2.355,0,3.715-2.198,5.128-4.709
c1.15-1.989,7.482-14.181,8.215-15.541c1.15-2.041,2.25-3.873,3.453-3.873c0.68,0,1.465,0.577-0.576,4.239l-10.57,19.466h5.233
l8.633-15.907c3.559-6.332,5.651-7.902,7.64-7.902c0.627,0,1.308,0.942,0.208,2.459c-4.656,6.698-8.319,13.866-8.686,16.797
c-0.313,2.877,1.465,4.866,3.663,4.866c2.093,0,4.971-2.616,7.797-7.797c-0.942,5.861,2.459,7.901,4.343,7.797
c2.25-0.052,4.448-1.779,6.227-3.559c0.418,2.041,1.884,3.559,4.291,3.559c4.029,0,8.791-3.035,10.779-7.116
C211.361,56.37,210.89,50.876,209.32,45.539L209.32,45.539z M197.337,45.695c0.837-0.837,1.466-1.099,1.884-0.156
c0.313,0.68,0.104,3.819-2.25,6.383c-1.099,1.204-3.297,2.93-6.07,2.355C193.518,49.725,195.873,47.056,197.337,45.695
L197.337,45.695z M62.701,67.464c-0.471,0-1.203-0.314-1.203-1.57c0-1.988,1.203-5.18,4.343-10.726
c4.657-8.216,7.849-10.1,8.895-10.1c0.419,0,1.204,0.314,1.204,1.569c0,1.989-1.256,3.664-4.239,9.367
C66.417,66.051,63.695,67.464,62.701,67.464L62.701,67.464z M102.47,67.464c-0.471,0-1.204-0.262-1.204-1.518
c0-2.041,1.204-5.181,4.344-10.779c4.657-8.164,7.849-10.047,8.843-10.047c0.471,0,1.204,0.313,1.204,1.517
c0,2.041-1.204,3.715-4.186,9.419C106.185,66.104,103.464,67.464,102.47,67.464L102.47,67.464z M205.71,57.26
c-1.413,3.977-4.029,10.309-8.006,10.309c-2.825,0-2.512-2.983-2.512-3.663c0,0,1.569,0.419,3.454-1.413
c0.837-0.837,1.674-3.036,1.098-4.343c2.983-3.977,6.802-9.314,8.11-11.146C207.385,50.353,206.652,54.435,205.71,57.26
L205.71,57.26z" fill="white"/>
</svg>
